HIERARCHY
ROOT Hips
{
 OFFSET 0.000000 0.000000 0.000000
 CHANNELS 6 Xposition Yposition Zposition Yrotation Xrotation Zrotation
 JOINT Chest
 {
  OFFSET 0.000000 9.812683 -0.003552
  CHANNELS 3 Yrotation Xrotation Zrotation
  JOINT Chest2
  {
   OFFSET 0.000000 9.777810 0.007248
   CHANNELS 3 Yrotation Xrotation Zrotation
   JOINT Chest3
   {
    OFFSET 0.000000 9.736392 0.000000
    CHANNELS 3 Yrotation Xrotation Zrotation
    JOINT Chest4
    {
     OFFSET 0.000000 9.726454 0.000000
     CHANNELS 3 Yrotation Xrotation Zrotation
     JOINT Neck
     {
      OFFSET 0.000000 14.679095 0.000000
      CHANNELS 3 Yrotation Xrotation Zrotation
      JOINT Head
      {
       OFFSET 0.000000 9.104124 0.015333
       CHANNELS 3 Yrotation Xrotation Zrotation
       End Site
       {
        OFFSET 0.000000 17.313862 0.008094
       }
      }
     }
     JOINT RightCollar
     {
      OFFSET -2.991841 9.728033 0.000000
      CHANNELS 3 Yrotation Xrotation Zrotation
      JOINT RightShoulder
      {
       OFFSET -14.105608 0.000000 0.000000
       CHANNELS 3 Yrotation Xrotation Zrotation
       JOINT RightElbow
       {
        OFFSET -30.920614 0.000000 0.000000
        CHANNELS 3 Yrotation Xrotation Zrotation
        JOINT RightWrist
        {
         OFFSET -25.011638 0.000000 0.000000
         CHANNELS 3 Yrotation Xrotation Zrotation
         End Site
         {
          OFFSET -18.498852 0.000000 0.000000
         }
        }
       }
      }
     }
     JOINT LeftCollar
     {
      OFFSET 2.991841 9.728033 0.000000
      CHANNELS 3 Yrotation Xrotation Zrotation
      JOINT LeftShoulder
      {
       OFFSET 14.105608 0.000000 0.000000
       CHANNELS 3 Yrotation Xrotation Zrotation
       JOINT LeftElbow
       {
        OFFSET 30.920614 0.000000 0.000000
        CHANNELS 3 Yrotation Xrotation Zrotation
        JOINT LeftWrist
        {
         OFFSET 25.011638 0.000000 0.000000
         CHANNELS 3 Yrotation Xrotation Zrotation
         End Site
         {
          OFFSET 18.498852 0.000000 0.000000
         }
        }
       }
      }
     }
    }
   }
  }
 }
 JOINT RightHip
 {
  OFFSET -8.005612 0.017580 0.001776
  CHANNELS 3 Yrotation Xrotation Zrotation
  JOINT RightKnee
  {
   OFFSET 0.000000 -41.413990 -0.001697
   CHANNELS 3 Yrotation Xrotation Zrotation
   JOINT RightAnkle
   {
    OFFSET 0.000000 -40.303361 -0.002870
    CHANNELS 3 Yrotation Xrotation Zrotation
    JOINT RightToe
    {
     OFFSET 0.000000 -7.855341 17.873357
     CHANNELS 3 Yrotation Xrotation Zrotation
     End Site
     {
      OFFSET 0.000000 -1.536332 6.874071
     }
    }
   }
  }
 }
 JOINT LeftHip
 {
  OFFSET 8.005612 0.017580 0.001776
  CHANNELS 3 Yrotation Xrotation Zrotation
  JOINT LeftKnee
  {
   OFFSET 0.000000 -41.413990 -0.001697
   CHANNELS 3 Yrotation Xrotation Zrotation
   JOINT LeftAnkle
   {
    OFFSET 0.000000 -40.303361 -0.002870
    CHANNELS 3 Yrotation Xrotation Zrotation
    JOINT LeftToe
    {
     OFFSET 0.000000 -7.855341 17.873357
     CHANNELS 3 Yrotation Xrotation Zrotation
     End Site
     {
      OFFSET 0.000000 -1.536332 6.874071
     }
    }
   }
  }
 }
}
MOTION
Frames: 11
Frame Time: 0.008333
0.000000 89.373800 0.000000 0.000000 -5.767889 0.000000 0.000000 11.653876 0.000000 0.000000 -5.885988 0.000000 0.000000 -0.000000 0.000000 0.000000 -0.000000 0.000000 0.000000 12.528808 0.000000 0.000000 0.711711 0.000000 0.000000 -0.000000 0.000000 0.000000 -0.000000 0.000000 2.309063 -0.000000 0.000000 -2.309063 -0.000000 -0.000000 0.000000 -0.000000 0.000000 0.000000 0.000000 0.000000 -2.309063 0.000000 0.000000 2.309063 -0.000000 0.000000 0.000000 8.520374 0.000000 0.000000 1.905768 0.000000 -0.000000 -4.658254 0.000000 0.000000 -0.000000 0.000000 0.000000 8.520374 0.000000 0.000000 1.905768 0.000000 -0.000000 -4.658254 0.000000 0.000000 -0.000000 0.000000
52.056109 90.773143 131.692222 -163.689830 -8.134791 -1.492622 -14.611889 7.205286 1.111305 -1.452612 0.698517 0.186896 -2.429675 1.171470 0.302767 -12.875105 6.328798 1.033759 0.802594 22.775065 -8.153068 2.762045 -0.863339 -9.166501 -0.512058 2.482824 -8.453261 19.233618 -1.998689 84.411156 18.960344 11.337036 2.729333 12.606660 -2.337881 -4.081771 8.156762 -6.622599 6.079626 -25.494057 -48.490178 -79.482346 -106.555464 33.653752 -5.018576 15.401142 1.845315 11.585226 -29.033975 14.012901 -4.217146 4.090954 9.511162 -2.460420 -12.074204 -10.268190 1.871727 0.031506 0.014879 0.151446 -7.380056 -1.393188 2.097230 -2.454637 11.311645 1.239076 6.318088 -22.275133 -11.394542 0.036339 0.579564 0.233157
51.870812 90.784787 131.705550 -163.605092 -8.141040 -1.472008 -14.616393 7.179352 1.107958 -1.451788 0.695603 0.187422 -2.428414 1.166657 0.303707 -12.876239 6.307859 1.041570 0.763875 22.936776 -8.157801 2.720095 -0.670382 -9.165860 -0.526869 2.542415 -8.471562 19.108683 -1.981942 84.466913 18.469110 11.215153 2.544404 12.635492 -2.364460 -4.150598 8.137692 -6.592915 6.176401 -25.642338 -48.053290 -79.367338 -105.731439 33.026874 -4.125873 15.294601 1.291162 12.265896 -28.937655 13.947304 -4.271435 3.931287 9.590595 -2.584846 -12.078481 -10.198432 2.027114 0.002235 -0.015307 0.149933 -7.788924 -1.363598 2.028758 -2.409859 11.292006 1.111455 6.590424 -22.484650 -11.558193 -0.016613 0.598417 0.387315
51.655419 90.798333 131.723571 -163.520909 -8.138748 -1.444545 -14.614673 7.150445 1.107928 -1.449906 0.691974 0.187377 -2.425467 1.160675 0.303720 -12.874181 6.282977 1.045586 0.727837 23.108899 -8.157035 2.679760 -0.464856 -9.159883 -0.524769 2.587329 -8.486031 19.003632 -1.944076 84.534759 17.919184 11.073952 2.323682 12.650908 -2.389870 -4.215066 8.116724 -6.558565 6.259192 -25.786575 -47.601897 -79.234401 -104.853966 32.329604 -3.198977 15.180352 0.965448 12.841062 -28.845805 13.848240 -4.338897 3.775360 9.697681 -2.715332 -12.098636 -10.123313 2.190470 -0.014763 -0.044581 0.157768 -8.239372 -1.350590 1.938949 -2.211017 11.292732 0.999778 6.777647 -22.755064 -11.721502 -0.051808 0.641438 0.520086
51.418070 90.813618 131.745034 -163.440537 -8.132664 -1.413137 -14.606721 7.121692 1.111516 -1.447218 0.687787 0.186727 -2.421239 1.153779 0.302740 -12.869872 6.254853 1.045200 0.698772 23.284717 -8.148383 2.645231 -0.254843 -9.146750 -0.508272 2.620979 -8.497318 18.929989 -1.891209 84.614514 17.312520 10.916619 2.071521 12.647843 -2.414994 -4.272219 8.100579 -6.517801 6.310900 -25.858461 -47.130103 -79.137471 -103.984447 31.642413 -2.308043 15.165570 0.912676 13.194329 -28.750400 13.726054 -4.413557 3.642997 9.828739 -2.850537 -12.146975 -10.040794 2.355129 -0.022728 -0.073876 0.175587 -8.707477 -1.344358 1.832467 -1.921922 11.307950 0.899502 6.925803 -23.087568 -11.891406 -0.073811 0.706729 0.635506
51.167440 90.830612 131.768124 -163.367136 -8.129689 -1.384345 -14.591255 7.096846 1.118629 -1.443603 0.683630 0.185571 -2.415515 1.146950 0.300924 -12.861488 6.228393 1.040791 0.675987 23.458889 -8.131634 2.615717 -0.046832 -9.125920 -0.483347 2.644923 -8.506948 18.892369 -1.829709 84.702347 16.658857 10.744860 1.803207 12.621884 -2.437545 -4.322804 8.093225 -6.475452 6.331963 -25.818988 -46.615611 -79.084292 -103.137139 31.049244 -1.454498 15.273857 1.058083 13.225779 -28.639519 13.600031 -4.484907 3.536438 9.969888 -2.992620 -12.226433 -9.944003 2.515895 -0.023955 -0.104002 0.202162 -9.173150 -1.323120 1.719541 -1.627172 11.312835 0.799601 7.093380 -23.474889 -12.061076 -0.087978 0.791059 0.727490
50.910689 90.849393 131.791243 -163.305936 -8.136288 -1.363448 -14.564696 7.079016 1.130434 -1.438702 0.679980 0.183857 -2.407700 1.140985 0.298181 -12.846389 6.208047 1.031613 0.656593 23.632086 -8.106997 2.588082 0.159877 -9.096933 -0.452543 2.653019 -8.509258 18.882280 -1.756658 84.791998 15.965287 10.568402 1.532530 12.573158 -2.455627 -4.365048 8.092996 -6.431538 6.325493 -25.648464 -46.040611 -79.071623 -102.301391 30.591563 -0.636630 15.439056 1.314375 12.900404 -28.499806 13.482945 -4.541870 3.443889 10.116553 -3.146330 -12.334404 -9.829874 2.670669 -0.017709 -0.136102 0.235614 -9.617488 -1.271795 1.605794 -1.383543 11.292972 0.699423 7.309538 -23.907644 -12.217185 -0.096063 0.884403 0.785284
50.651808 90.869940 131.814471 -163.256620 -8.152184 -1.346890 -14.527422 7.067589 1.142396 -1.432676 0.677128 0.181676 -2.398046 1.136369 0.294658 -12.824682 6.195903 1.018089 0.635766 23.807748 -8.079860 2.558260 0.369806 -9.064864 -0.419845 2.645488 -8.502692 18.891132 -1.675980 84.876010 15.232789 10.398740 1.263036 12.509034 -2.468550 -4.387766 8.099328 -6.381374 6.302919 -25.364424 -45.397537 -79.068552 -101.460638 30.221358 0.142938 15.577660 1.640011 12.268815 -28.334437 13.375028 -4.585311 3.345272 10.264085 -3.314475 -12.453389 -9.698556 2.818854 -0.003754 -0.168356 0.273196 -10.025516 -1.191831 1.484891 -1.194445 11.244650 0.612286 7.550517 -24.363404 -12.349531 -0.096291 0.970022 0.804489
50.392037 90.892206 131.838422 -163.214232 -8.176170 -1.325551 -14.483656 7.062594 1.146998 -1.425718 0.675159 0.179174 -2.386859 1.133239 0.290593 -12.796941 6.192410 1.001302 0.610588 23.985536 -8.054638 2.524064 0.582886 -9.034047 -0.393893 2.627827 -8.489629 18.913733 -1.595831 84.946308 14.469161 10.243749 1.000114 12.431652 -2.471501 -4.382908 8.116738 -6.318448 6.274347 -25.004288 -44.687725 -79.039889 -100.607188 29.834621 0.867811 15.652949 2.016848 11.432467 -28.156698 13.272732 -4.625448 3.214867 10.407412 -3.501962 -12.553541 -9.552740 2.963322 0.011729 -0.197042 0.311813 -10.376827 -1.091340 1.345021 -1.037466 11.170245 0.550539 7.770026 -24.815849 -12.457703 -0.089009 1.035061 0.793511
50.132403 90.916001 131.863961 -163.175001 -8.203754 -1.296337 -14.437706 7.061114 1.143460 -1.418416 0.674042 0.176558 -2.375091 1.131533 0.286324 -12.765869 6.196342 0.982785 0.584746 24.162307 -8.030552 2.489398 0.795378 -9.004423 -0.374439 2.606613 -8.474558 18.942184 -1.524657 85.000719 13.674451 10.117247 0.742854 12.342335 -2.464678 -4.350542 8.153083 -6.234574 6.238146 -24.623470 -43.912957 -78.938426 -99.735881 29.329389 1.527163 15.701005 2.430284 10.490114 -27.975233 13.163964 -4.661669 3.038515 10.557797 -3.714049 -12.623413 -9.398445 3.104053 0.027819 -0.222274 0.352828 -10.647114 -0.980369 1.181200 -0.898307 11.072193 0.519857 7.941973 -25.245598 -12.544195 -0.077417 1.076534 0.762426
49.873795 90.940969 131.891731 -163.130274 -8.229817 -1.262191 -14.396687 7.061840 1.133594 -1.411903 0.673688 0.174139 -2.364574 1.131077 0.282362 -12.736880 6.204961 0.964834 0.562601 24.336522 -8.007590 2.459079 1.005590 -8.977007 -0.355304 2.585743 -8.460301 18.969390 -1.467401 85.039970 12.855195 10.033090 0.492301 12.240198 -2.453055 -4.290029 8.211030 -6.129908 6.197287 -24.264007 -43.069835 -78.740411 -98.846573 28.654388 2.121647 15.796405 2.852089 9.506324 -27.805243 13.037108 -4.690905 2.823420 10.731802 -3.947594 -12.671365 -9.245044 3.236684 0.046502 -0.245383 0.399176 -10.833818 -0.868078 0.994838 -0.777854 10.954696 0.521742 8.067371 -25.639961 -12.610557 -0.064583 1.095505 0.716552
